<?xml version="1.0"?>
<svg xmlns="http://www.w3.org/2000/svg" xmlns:xlink="http://www.w3.org/1999/xlink" xmlns:svgjs="http://svgjs.com/svgjs" version="1.1" width="60" height="60" x="0" y="0" viewBox="0 0 512 512" style="enable-background:new 0 0 512 512" xml:space="preserve" class=""><g>
<g xmlns="http://www.w3.org/2000/svg">
	<g>
		<path d="M144.845,316.978c-1.211-27.494,7.856-54.253,25.53-75.348l-23.009-19.278c-22.505,26.862-34.05,60.936-32.508,95.946    c1.542,35.009,16.037,67.936,40.817,92.716L176.9,389.79C157.44,370.33,146.055,344.471,144.845,316.978z" fill="#25c24f" data-original="#000000" style="" class=""/>
	</g>
</g>
<g xmlns="http://www.w3.org/2000/svg">
	<g>
		<path d="M457.314,170.943h-88.995L384.607,0l-55.141,90.376L254.543,0.949L101.348,183.797    c-32.168,38.396-48.671,87.1-46.466,137.141c2.204,50.041,22.924,97.107,58.343,132.526C150.972,491.212,201.16,512,254.543,512    s103.571-20.788,141.318-58.536c31.925-31.925,52.272-74.194,57.29-119.02c4.617-41.232-3.839-83.217-23.851-119.284    L457.314,170.943z M342.364,126.867l-7.06,74.093h67.459l-58.037,91.61l8.193-72.181h-67.615L342.364,126.867z M423.32,331.104    c-4.265,38.088-21.555,74.005-48.686,101.136c-32.078,32.078-74.728,49.744-120.093,49.744s-88.015-17.666-120.093-49.744    c-30.099-30.1-47.707-70.096-49.579-112.622c-1.872-42.526,12.151-83.915,39.487-116.543L254.543,47.689l58.423,69.732    l-81.138,132.984h87.475l-19.137,168.59l110.323-174.143C422.086,271.811,426.615,301.68,423.32,331.104z" fill="#25c24f" data-original="#000000" style="" class=""/>
	</g>
</g>
<g xmlns="http://www.w3.org/2000/svg">
</g>
<g xmlns="http://www.w3.org/2000/svg">
</g>
<g xmlns="http://www.w3.org/2000/svg">
</g>
<g xmlns="http://www.w3.org/2000/svg">
</g>
<g xmlns="http://www.w3.org/2000/svg">
</g>
<g xmlns="http://www.w3.org/2000/svg">
</g>
<g xmlns="http://www.w3.org/2000/svg">
</g>
<g xmlns="http://www.w3.org/2000/svg">
</g>
<g xmlns="http://www.w3.org/2000/svg">
</g>
<g xmlns="http://www.w3.org/2000/svg">
</g>
<g xmlns="http://www.w3.org/2000/svg">
</g>
<g xmlns="http://www.w3.org/2000/svg">
</g>
<g xmlns="http://www.w3.org/2000/svg">
</g>
<g xmlns="http://www.w3.org/2000/svg">
</g>
<g xmlns="http://www.w3.org/2000/svg">
</g>
</g></svg>
