<?xml version="1.0"?>
<svg xmlns="http://www.w3.org/2000/svg" xmlns:xlink="http://www.w3.org/1999/xlink" xmlns:svgjs="http://svgjs.com/svgjs" version="1.1" width="60" height="60" x="0" y="0" viewBox="0 0 513.265 513.265" style="enable-background:new 0 0 512 512" xml:space="preserve" class=""><g>
<g xmlns="http://www.w3.org/2000/svg">
	<path d="M403.896,212.43V17.425H109.368V212.43H0l256.633,283.409L513.265,212.43H403.896z M67.637,242.43h71.731V47.425h234.528   V242.43h71.731L256.633,451.144L67.637,242.43z" fill="#25c24f" data-original="#000000" style="" class=""/>
	<path d="M288.589,231.348c-7.13-5.399-11.327-7.579-19.334-11.581l-10.88-5.643c-1.897-1.038-4.242-2.65-7.204-4.688l-0.287-0.197   c-5.223-4.08-6.249-7.626-6.249-12.354c0-7.063,5.382-12.808,11.998-12.808c6.976,0,12.174,2.065,18.102,12.625l2.608,4.646   l22.616-14.653l-2.039-4.013c-6.249-12.299-15.176-20.196-26.574-23.528v-18.466h-26.188v18.315   c-16.874,5.194-28.332,20.805-28.332,39.3c0,12.132,3.878,21.228,12.262,28.678c7.508,6.467,13.131,9.906,24.99,15.296   c17.841,8.497,23.862,14.304,23.862,23.009c0,5.529-1.458,10.115-4.27,13.554c-3.684,4.322-8.582,6.336-15.418,6.336   c-12.877,0-20.039-7.549-25.546-26.923l-1.792-6.304l-24.007,14.529l0.713,3.459c4.246,20.596,18.449,35.841,37.537,40.683v18.148   h26.188v-18.302c8.613-2.12,16.054-6.571,22.148-13.256c8.131-8.81,12.254-19.687,12.254-32.33l-0.005-0.214   C305.105,249.792,299.966,239.822,288.589,231.348z" fill="#25c24f" data-original="#000000" style="" class=""/>
</g>















</g></svg>
