<?xml version="1.0"?>
<svg xmlns="http://www.w3.org/2000/svg" xmlns:xlink="http://www.w3.org/1999/xlink" xmlns:svgjs="http://svgjs.com/svgjs" version="1.1" width="60" height="60" x="0" y="0" viewBox="0 0 512 512" style="enable-background:new 0 0 512 512" xml:space="preserve" class=""><g><g xmlns="http://www.w3.org/2000/svg"><path d="m392.93 245.122c54.671 0 99.149-44.492 99.149-99.18 0-54.672-44.479-99.151-99.149-99.151-54.687 0-99.178 44.479-99.178 99.151 0 54.687 44.491 99.18 99.178 99.18zm0-178.332c43.644 0 79.149 35.507 79.149 79.151 0 43.66-35.506 79.18-79.149 79.18-43.659 0-79.178-35.52-79.178-79.18 0-43.644 35.518-79.151 79.178-79.151z" fill="#25c24f" data-original="#000000" style="" class=""/><path d="m374.209 155.941h21.273l-16.05 32.28c-2.459 4.945-.443 10.947 4.502 13.406 1.431.711 2.948 1.048 4.444 1.048 3.676 0 7.214-2.035 8.962-5.55l23.236-46.732c.085-.17.156-.326.218-.472.53-1.22.828-2.565.828-3.98 0-5.523-4.478-10-10-10h-21.26l16.062-32.246c2.462-4.943.451-10.947-4.492-13.41-4.946-2.463-10.948-.451-13.41 4.493l-23.265 46.704c-.078.156-.144.302-.202.439-.542 1.231-.847 2.589-.847 4.02.001 5.523 4.478 10 10.001 10z" fill="#25c24f" data-original="#000000" style="" class=""/><path d="m128.272 272.097h80.292c5.522 0 10-4.477 10-10s-4.478-10-10-10h-80.292c-5.522 0-10 4.477-10 10s4.478 10 10 10z" fill="#25c24f" data-original="#000000" style="" class=""/><path d="m128.272 221.05h105.483c5.522 0 10-4.477 10-10s-4.478-10-10-10h-105.483c-5.522 0-10 4.477-10 10s4.478 10 10 10z" fill="#25c24f" data-original="#000000" style="" class=""/><path d="m138.884 120.453h109.999c11.365 0 20.611-9.247 20.611-20.612v-29.822c0-11.365-9.246-20.612-20.611-20.612h-109.999c-11.365 0-20.611 9.247-20.611 20.612v29.822c-.001 11.366 9.245 20.612 20.611 20.612zm-.612-50.434c0-.314.297-.612.611-.612h109.999c.314 0 .611.297.611.612v29.822c0 .314-.297.612-.611.612h-109.998c-.314 0-.611-.297-.611-.612v-29.822z" fill="#25c24f" data-original="#000000" style="" class=""/><path d="m128.272 170.004h130.675c5.522 0 10-4.477 10-10s-4.478-10-10-10h-130.675c-5.522 0-10 4.477-10 10s4.478 10 10 10z" fill="#25c24f" data-original="#000000" style="" class=""/><path d="m506.768 455.548-69.047-37.673c-3.1-1.69-6.859-1.623-9.895.179-3.035 1.801-4.896 5.069-4.896 8.599v27.673h-37.918v-30.636c0-5.523-4.478-10-10-10s-10 4.477-10 10v30.636h-31.188v-159.366h31.188v37.219c0 5.523 4.478 10 10 10s10-4.477 10-10v-47.219c0-5.523-4.478-10-10-10h-51.188c-5.522 0-10 4.477-10 10v169.366h-37.918v-133.562c0-5.523-4.478-10-10-10h-51.188c-5.522 0-10 4.477-10 10v133.562h-37.918v-97.729c0-5.523-4.478-10-10-10h-51.189c-5.522 0-10 4.477-10 10v97.729h-37.918v-365.248h27.673c3.529 0 6.797-1.86 8.599-4.895s1.87-6.794.181-9.893l-37.673-69.078c-1.752-3.213-5.121-5.212-8.78-5.212-3.66 0-7.027 1.999-8.779 5.212l-37.672 69.078c-1.689 3.098-1.621 6.858.181 9.893s5.069 4.895 8.599 4.895h27.672v375.249c0 5.523 4.478 10 10 10h375.238v27.673c0 3.53 1.86 6.798 4.896 8.599 1.571.933 3.337 1.401 5.104 1.401 1.646 0 3.295-.406 4.79-1.222l69.047-37.674c3.212-1.752 5.21-5.12 5.21-8.778-.001-3.659-1.999-7.026-5.211-8.778zm-479.903-386.47 20.828-38.191 20.829 38.191zm119.936 385.248h-31.189v-87.729h31.189zm109.106 0h-31.188v-123.562h31.188zm187.025 30.826v-41.652l38.169 20.826z" fill="#25c24f" data-original="#000000" style="" class=""/><path d="m375.014 364.6c-5.522 0-10 4.477-10 10v.029c0 5.523 4.478 9.986 10 9.986s10-4.492 10-10.015-4.478-10-10-10z" fill="#25c24f" data-original="#000000" style="" class=""/></g></g></svg>
